# xmcd CD database file
#
# Track frame offsets:
#	150
#	19817
#	36745
#
# Disc length: 749 seconds
#
# Revision: 0
# Processed by: cddbd v1.5.1PL2 Copyright (c) Steve Scherf et al.
# Submitted via: CDex 1.51
#
DISCID=2302eb03
DTITLE=木村佳乃 - イルカの夏
DYEAR=1998
DGENRE=JPop
TTITLE0=イルカの夏
TTITLE1=Sunny Side Story
TTITLE2=イルカの夏 (Backtracks)
EXTD=YEAR: 1998
EXTT0=
EXTT1=
EXTT2=
PLAYORDER=
